# xmcd
#
# Track frame offsets: 
#        150
#        16577
#        35324
#        51419
#        74632
#        99289
#        121935
#        162108
#        181013
#        210993
#
# Disc length: 2989 seconds
#
# Revision: 0
# Processed by: cddbd v1.5.2PL0 Copyright (c) Steve Scherf et al.
# Submitted via: ExactAudioCopy v0.95b3
#
DISCID=750bab0a
DTITLE=Scott McKeon - Can't Take No More
DYEAR=2007
DGENRE=Blues
TTITLE0=Shot Down
TTITLE1=Honey Baby
TTITLE2=I Used To Have Something
TTITLE3=Can't Take No More
TTITLE4=All The Same
TTITLE5=I Can See Through You
TTITLE6=Last Thing I Do
TTITLE7=Cool Lookin' Woman
TTITLE8=Maybe
TTITLE9=Fuzz Six Six Six
EXTD=
EXTT0=
EXTT1=
EXTT2=
EXTT3=
EXTT4=
EXTT5=
EXTT6=
EXTT7=
EXTT8=
EXTT9=
PLAYORDER=
